<svg width="88" height="32" viewBox="0 0 88 32" fill="none" xmlns="http://www.w3.org/2000/svg">
<path d="M15.5914 32C24.2023 32 31.1828 24.8366 31.1828 16C31.1828 7.16344 24.2023 0 15.5914 0C6.98052 0 0 7.16344 0 16C0 24.8366 6.98052 32 15.5914 32Z" fill="#FF8000"/>
<path d="M15.5864 0.884277C8.40625 0.884277 2.58545 6.87172 2.58545 14.2564C2.58545 14.9766 2.64259 15.6831 2.74889 16.3725C4.43048 11.8555 9.02148 8.61268 14.425 8.61268C18.9383 8.61268 22.8848 10.875 25.0435 14.2517C25.0567 14.2517 25.0694 14.2503 25.0827 14.2503C26.4792 14.2503 27.6539 14.706 28.5289 15.487C28.5648 15.0818 28.586 14.6719 28.586 14.2564C28.5867 6.87172 22.7666 0.884277 15.5864 0.884277Z" fill="#FFCE00"/>
<path d="M28.5322 15.4852C27.6565 14.7043 26.4819 14.2485 25.086 14.2485C25.0727 14.2485 25.0601 14.2492 25.0468 14.2499C21.2212 14.2731 17.1969 17.6908 16.0455 21.9045C15.4316 24.1497 15.7572 26.1688 16.7717 27.5695C16.3824 27.6057 15.9884 27.6268 15.5897 27.6268C9.10986 27.6268 3.73887 22.7504 2.75291 16.3708C2.30975 17.5617 2.06592 18.8394 2.06592 20.1711C2.06592 23.4419 3.52095 26.3929 5.85564 28.496C7.29672 29.6807 8.94642 30.6072 10.7403 31.2078C12.2584 31.7162 13.8769 31.9943 15.5598 31.9943C20.2239 31.9943 24.4056 29.8809 27.2579 26.537C28.2405 25.3851 29.0644 24.0869 29.6956 22.678C29.7886 22.4231 29.871 22.1648 29.9427 21.9038C30.6762 19.2145 30.0623 16.8504 28.5322 15.4852Z" fill="#FF0024"/>
<path d="M85.6024 20.1392C83.216 20.1392 82.1174 18.8727 82.1174 16.4041V1.20361H74.8015V12.4902C73.1383 8.79643 69.5197 6.23771 65.3187 6.23771C61.1177 6.23771 57.499 8.79643 55.8358 12.4902V6.46539H48.6142V17.0865C48.6142 19.0029 47.6408 20.3019 46.0084 20.3019C44.3759 20.3019 43.4025 19.0029 43.4025 17.0865V6.46539H36.0859V17.1841C36.0859 23.7449 39.9797 27.8703 46.0084 27.8703C50.8481 27.8703 54.3029 25.0913 55.4349 20.5919C56.8505 24.8291 60.739 27.8703 65.3187 27.8703C69.8374 27.8703 73.684 24.9097 75.1454 20.7599C76.223 25.5758 79.7467 27.7083 84.4724 27.7083H86.325V20.1392H85.6024ZM65.3187 20.3019C63.5919 20.3019 62.1789 18.8402 62.1789 17.054C62.1789 15.2678 63.5919 13.8061 65.3187 13.8061C67.0454 13.8061 68.4584 15.2678 68.4584 17.054C68.4584 18.8402 67.0454 20.3019 65.3187 20.3019Z" fill="black"/>
</svg>
